<svg xmlns="http://www.w3.org/2000/svg" viewBox="0 0 800 600">
    <!-- Background Elements -->
    <g opacity="0.1">
        <circle cx="100" cy="100" r="20" fill="#fff"/>
        <circle cx="700" cy="500" r="30" fill="#fff"/>
        <rect x="600" y="100" width="40" height="40" rx="5" fill="#fff"/>
        <path d="M50,500 L80,550 L20,550 Z" fill="#fff"/>
        <!-- Floating Icons -->
        <path d="M200,150 Q220,130 240,150 T280,150" stroke="#fff" stroke-width="2" fill="none"/>
        <circle cx="400" cy="100" r="5" fill="#fff"/>
        <rect x="500" y="200" width="10" height="10" fill="#fff"/>
    </g>

    <!-- Main Character & Computer -->
    <g transform="translate(200, 100)">
        <!-- Monitor Stand -->
        <path d="M150,400 L250,400 L250,420 L120,420 L120,410 Q120,400 130,400 Z" fill="#e0e0e0"/>
        <rect x="180" y="350" width="40" height="50" fill="#d1d1d1"/>
        
        <!-- Monitor Screen -->
        <rect x="50" y="50" width="300" height="300" rx="20" fill="#2d3436"/>
        <rect x="60" y="60" width="280" height="280" rx="15" fill="#d12026"/>
        
        <!-- Character -->
        <g transform="translate(100, 80)">
            <!-- Hair -->
            <path d="M40,20 Q20,20 10,50 Q0,80 20,100 Q10,120 30,130 L40,140 L160,140 L170,130 Q190,120 180,100 Q200,80 190,50 Q180,20 160,20 Z" fill="#2d3436"/>
            
            <!-- Face -->
            <path d="M60,50 Q60,120 100,120 Q140,120 140,50 Q140,20 100,20 Q60,20 60,50 Z" fill="#fff"/>
            
            <!-- Headset -->
            <path d="M55,50 Q55,10 100,10 Q145,10 145,50" stroke="#2d3436" stroke-width="4" fill="none"/>
            <circle cx="145" cy="50" r="8" fill="#2d3436"/>
            <path d="M145,50 L130,90" stroke="#2d3436" stroke-width="2"/>
            <circle cx="130" cy="90" r="3" fill="#2d3436"/>

            <!-- Body -->
            <path d="M20,140 Q20,120 50,120 L150,120 Q180,120 180,140 L180,250 L20,250 Z" fill="#d12026"/>
            
            <!-- Arm/Hand Gesture (OK Sign) -->
            <path d="M-20,160 Q-10,140 10,150 L30,160 L30,200 L10,210 Q-10,200 -20,180 Z" fill="#fff"/>
            <circle cx="10" cy="160" r="8" stroke="#2d3436" stroke-width="2" fill="none"/>
        </g>

        <!-- Screen Elements -->
        <circle cx="90" cy="280" r="20" fill="#fff" opacity="0.2"/>
        <rect x="130" y="270" width="100" height="20" rx="10" fill="#fff" opacity="0.2"/>
        
        <!-- Checkmark Bubble -->
        <g transform="translate(-20, 200)">
            <circle cx="30" cy="30" r="30" fill="#fff"/>
            <path d="M15,30 L25,40 L45,20" stroke="#d12026" stroke-width="4" fill="none" stroke-linecap="round" stroke-linejoin="round"/>
        </g>
    </g>
</svg>
